<svg viewBox="0 0 512 512" xmlns="http://www.w3.org/2000/svg" xmlns:xlink="http://www.w3.org/1999/xlink"><linearGradient id="a" gradientTransform="matrix(1 0 0 -1 0 -16582)" gradientUnits="userSpaceOnUse" x1="0" x2="512" y1="-16838" y2="-16838"><stop offset="0" stop-color="#00f1ff"/><stop offset=".231" stop-color="#00d8ff"/><stop offset=".5138" stop-color="#00c0ff"/><stop offset=".7773" stop-color="#00b2ff"/><stop offset="1" stop-color="#00adff"/></linearGradient><path d="m512 256c0 141.386719-114.613281 256-256 256s-256-114.613281-256-256 114.613281-256 256-256 256 114.613281 256 256zm0 0" fill="url(#a)"/><g fill="#fff"><path d="m336.890625 149.769531h-102.226563c-8.28125 0-15 6.71875-15 15 0 8.285157 6.71875 15 15 15h102.226563c8.285156 0 15-6.714843 15-15 0-8.28125-6.714844-15-15-15zm0 0"/><path d="m351.890625 222.40625c0-8.28125-6.714844-15-15-15h-102.226563c-8.28125 0-15 6.71875-15 15 0 8.285156 6.71875 15 15 15h102.226563c8.285156 0 15-6.714844 15-15zm0 0"/><path d="m234.664062 265.042969c-8.28125 0-15 6.71875-15 15 0 8.285156 6.71875 15 15 15h43.949219c8.285157 0 15-6.714844 15-15 0-8.28125-6.714843-15-15-15zm0 0"/><path d="m395.328125 269.105469c8.28125 0 15-6.714844 15-15v-123.914063c0-32.105468-26.121094-58.230468-58.226563-58.230468h-132.566406c-31.894531 0-57.867187 25.78125-58.210937 57.597656-31.839844.3125-57.648438 26.300781-57.648438 58.214844v195.960937c0 32.109375 26.121094 58.230469 58.226563 58.230469h139.765625c32.085937 0 58.191406-26.085938 58.226562-58.164063 28.429688-3.824219 50.433594-28.230469 50.433594-57.691406 0-8.28125-6.71875-15-15-15-8.285156 0-15 6.71875-15 15 0 15.5625-12.660156 28.226563-28.222656 28.230469l-132.5625.03125h-.003907c-7.539062 0-14.628906-2.9375-19.960937-8.265625-5.332031-5.332031-8.269531-12.421875-8.269531-19.960938v-195.953125c0-15.566406 12.664062-28.230468 28.226562-28.230468h132.566406c15.5625 0 28.226563 12.664062 28.226563 28.230468v123.914063c0 8.285156 6.714844 15 15 15zm-175.789063 115.265625h.011719l110.328125-.027344c-.324218 15.285156-12.847656 27.617188-28.210937 27.617188h-139.769531c-15.5625 0-28.226563-12.660157-28.226563-28.226563v-195.960937c0-15.367188 12.34375-27.894532 27.636719-28.210938v166.582031c0 15.554688 6.058594 30.179688 17.058594 41.175781 11 10.996094 25.617187 17.050782 41.171874 17.050782zm0 0"/></g></svg>